# xmcd
#
# Track frame offsets:
#	162
#	16740
#	37737
#	52262
#	67095
#	83405
#	100125
#	116017
#	133545
#	150645
#	165922
#	187242
#	204062
#	222225
#	238075
#	252110
#	268885
#	285942
#	300520
#	317572
#	335980
#
# Disc length: 4791
#
# Revision: 2
# Processed by: cddbd v1.5.1PL0 Copyright (c) Steve Scherf et al.
# Submitted via: audiograbber 1.83.01
# Normalized: r1:DSETVAR1
#
DISCID=2012b515
DTITLE=Various Artist - Neu Bei. Super Charts Hits. (2000)
DYEAR=1900
DGENRE=
TTITLE0=Dj Quicksilver feat. Candy Dulfer. - Love.
TTITLE1=A.C. One. - Sing A Song. (Rmx)
TTITLE2=Paul Johnson. - Get Get Down.
TTITLE3=Five. - Keep On Moving.
TTITLE4=Schiller. - Ruhe.
TTITLE5=Sash! - Adelante.
TTITLE6=Lipstrip feat. Jodie. - Hands Up.
TTITLE7=Highland. - Bella Stella.
TTITLE8=Camilot. - Amore.
TTITLE9=The Soundlovers. - Walking.
TTITLE10=Yamboo. - Come With Me.
TTITLE11=Blumchen. - Unter'm Weihnachtsbaum.
TTITLE12=Wamdue Project. - You're The Reason.
TTITLE13=Dj's vs. Opus. - Life Is Life '2000.
TTITLE14=Touch And Go. - Straight To... Number One.
TTITLE15=Raz-Ma-Taz. - Crazy World.
TTITLE16=Europe. - The Final Coundown '2000.
TTITLE17=Ricky Martin. - Shake Your Bom-Bom.
TTITLE18=Vengaboys. - Megamix.
TTITLE19=Allnitters. - The Story Of My Life '2000.
TTITLE20=Barcode Brothers. - Dooh Dooh.
EXTD=
EXTT0=
EXTT1=
EXTT2=
EXTT3=
EXTT4=
EXTT5=
EXTT6=
EXTT7=
EXTT8=
EXTT9=
EXTT10=
EXTT11=
EXTT12=
EXTT13=
EXTT14=
EXTT15=
EXTT16=
EXTT17=
EXTT18=
EXTT19=
EXTT20=
PLAYORDER=
